<svg width="363" height="105" viewBox="0 0 363 105" fill="none" xmlns="http://www.w3.org/2000/svg">
<path d="M116.157 42.633C116.157 31.0323 123.547 26.9537 130.122 26.9537C137.105 26.9537 143.226 31.123 143.226 42.633C143.226 52.9651 137.74 58.1763 129.533 58.1763C121.099 58.1763 116.157 52.9198 116.157 42.633ZM135.246 42.7691C135.246 38.9626 134.248 33.434 129.669 33.434C125.588 33.434 124.137 37.7843 124.137 42.316C124.137 46.5302 125.044 51.7868 129.85 51.7868C134.022 51.7868 135.246 47.3911 135.246 42.7691Z" fill="white"/>
<path d="M157.148 33.7511C164.448 33.7511 168.121 37.875 168.121 45.8957C168.121 53.9621 164.267 58.3574 158.01 58.3574C156.831 58.3574 155.471 58.0403 154.61 57.6325V67.1487H147.037V35.4733C150.71 34.2042 154.791 33.7511 157.148 33.7511ZM160.504 46.2585C160.504 42.2253 159.824 39.4611 156.877 39.4611C155.97 39.4611 155.154 39.6421 154.61 39.8235V52.1945C155.199 52.6023 156.242 52.8291 157.103 52.8291C159.733 52.8291 160.504 50.1553 160.504 46.2585Z" fill="white"/>
<path d="M170.663 46.6662C170.663 40.0953 174.608 33.7511 182.316 33.7511C187.077 33.7511 190.251 36.0624 190.251 40.8659C190.251 47.3911 183.177 48.7959 178.371 49.068C178.689 51.0165 180.094 52.7384 182.86 52.7384C185.037 52.7384 187.032 51.7414 188.437 50.7898L190.477 55.7746C190.251 56.001 186.805 58.3574 181.772 58.3574C173.837 58.3574 170.663 53.5539 170.663 46.6662ZM183.722 40.9112C183.722 39.7782 182.996 39.053 181.863 39.053C179.596 39.053 178.19 41.1829 178.054 44.3099C180.502 44.1738 183.722 43.1315 183.722 40.9112Z" fill="white"/>
<path d="M193.018 34.4763H199.276L199.729 36.9233C201.18 34.9748 203.311 33.7511 206.349 33.7511C210.792 33.7511 213.603 36.2435 213.603 41.7721V57.6325H206.031V43.0862C206.031 40.9562 205.76 39.5515 203.946 39.5515C202.132 39.5515 201.044 41.0015 201.044 42.9048V57.6325H193.517V39.0983L193.018 34.4763Z" fill="white"/>
<path d="M223.853 27.4975L227.39 46.8473H227.481L230.972 29.7636H238.499L241.718 46.2131H241.854L244.71 27.4975H252.509L246.479 57.6325H238.363L234.69 41.2736H234.509L230.745 57.6325H222.448L216.054 27.4975H223.853Z" fill="white"/>
<path d="M252.694 47.074C252.694 39.0983 256.866 33.7511 264.982 33.7511C266.569 33.7511 270.105 34.1592 273.733 35.5639V52.7384L274.231 57.6325H267.838L267.476 55.5025L267.249 55.4572C266.025 57.2247 264.166 58.3574 261.581 58.3574C254.598 58.3574 252.694 52.9198 252.694 47.074ZM266.251 50.3367V39.4158C265.707 39.189 264.982 39.053 264.166 39.053C261.173 39.053 260.176 42.633 260.176 46.5302C260.176 50.0196 260.81 52.9198 263.44 52.9198C265.208 52.9198 266.251 51.6507 266.251 50.3367Z" fill="white"/>
<path d="M278.315 49.4304V26.1381H285.887V49.4304C285.887 51.4697 286.431 52.4213 287.882 52.4213C288.562 52.4213 289.469 52.1492 290.512 51.6961L292.144 56.6809C290.512 57.8592 287.837 58.3574 285.796 58.3574C278.768 58.3574 278.315 53.7807 278.315 49.4304Z" fill="white"/>
<path d="M293.596 49.4304V26.1381H301.169V49.4304C301.169 51.4697 301.713 52.4213 303.164 52.4213C303.844 52.4213 304.75 52.1492 305.793 51.6961L307.426 56.6809C305.793 57.8592 303.118 58.3574 301.078 58.3574C294.05 58.3574 293.596 53.7807 293.596 49.4304Z" fill="white"/>
<path d="M307.835 46.6662C307.835 40.0953 311.78 33.7511 319.488 33.7511C324.249 33.7511 327.423 36.0624 327.423 40.8659C327.423 47.3911 320.349 48.7959 315.543 49.068C315.861 51.0165 317.266 52.7384 320.032 52.7384C322.209 52.7384 324.204 51.7414 325.609 50.7898L327.65 55.7746C327.423 56.001 323.977 58.3574 318.944 58.3574C311.009 58.3574 307.835 53.5539 307.835 46.6662ZM320.894 40.9112C320.894 39.7782 320.168 39.053 319.035 39.053C316.768 39.053 315.362 41.1829 315.226 44.3099C317.674 44.1738 320.894 43.1315 320.894 40.9112Z" fill="white"/>
<path d="M330.644 49.7021V26.1381H338.261V34.4763H343.929V40.322H338.261V49.3851C338.261 51.8775 339.44 52.6477 340.982 52.6477C341.843 52.6477 342.705 52.2852 343.431 51.8775L345.108 56.6809C343.702 57.6325 341.163 58.3574 338.624 58.3574C331.188 58.3574 330.644 53.9621 330.644 49.7021Z" fill="white"/>
<path d="M120.698 72.8289H129.683V74.3496H122.405V78.7675H129.539V80.2881H122.405V86.5349H120.698V72.8289Z" fill="white"/>
<path d="M144.429 72.6029C148.479 72.6029 151.234 75.6441 151.234 79.6922C151.234 83.7403 148.479 86.7815 144.429 86.7815C140.358 86.7815 137.623 83.7403 137.623 79.6922C137.623 75.6441 140.358 72.6029 144.429 72.6029ZM144.429 74.1235C141.344 74.1235 139.391 76.4866 139.391 79.6922C139.391 82.8772 141.344 85.2609 144.429 85.2609C147.492 85.2609 149.466 82.8772 149.466 79.6922C149.466 76.4866 147.492 74.1235 144.429 74.1235Z" fill="white"/>
<path d="M160.08 72.8289H161.787V81.1717C161.787 83.6786 163.144 85.2609 165.672 85.2609C168.201 85.2609 169.558 83.6786 169.558 81.1717V72.8289H171.265V81.1923C171.265 84.6033 169.394 86.7815 165.672 86.7815C161.951 86.7815 160.08 84.5828 160.08 81.2128V72.8289Z" fill="white"/>
<path d="M182.351 75.4797V86.5349H180.645V72.8289H182.392L190.288 83.6581V72.8289H191.994V86.5349H190.349L182.351 75.4797Z" fill="white"/>
<path d="M201.375 72.8289H206.062C210.318 72.8289 213.094 75.8085 213.094 79.6922C213.094 83.5964 210.318 86.5349 206.062 86.5349H201.375V72.8289ZM206.062 85.0143C209.393 85.0143 211.326 82.6307 211.326 79.6922C211.326 76.7332 209.455 74.3496 206.062 74.3496H203.081V85.0143H206.062Z" fill="white"/>
<path d="M229.814 83.4937H222.865L221.652 86.5349H219.76L225.27 72.8289H227.388L232.919 86.5349H231.027L229.814 83.4937ZM223.358 81.9731H229.3L226.34 74.3496L223.358 81.9731Z" fill="white"/>
<path d="M242.895 74.3496H238.556V72.8289H248.96V74.3496H244.601V86.5349H242.895V74.3496Z" fill="white"/>
<path d="M257.394 72.8289H259.1V86.5349H257.394V72.8289Z" fill="white"/>
<path d="M274.729 72.6029C278.779 72.6029 281.534 75.6441 281.534 79.6922C281.534 83.7403 278.779 86.7815 274.729 86.7815C270.658 86.7815 267.923 83.7403 267.923 79.6922C267.923 75.6441 270.658 72.6029 274.729 72.6029ZM274.729 74.1235C271.645 74.1235 269.692 76.4866 269.692 79.6922C269.692 82.8772 271.645 85.2609 274.729 85.2609C277.792 85.2609 279.766 82.8772 279.766 79.6922C279.766 76.4866 277.792 74.1235 274.729 74.1235Z" fill="white"/>
<path d="M292.087 75.4797V86.5349H290.38V72.8289H292.128L300.023 83.6581V72.8289H301.729V86.5349H300.085L292.087 75.4797Z" fill="white"/>
<path opacity="0.3" d="M78.9366 10.0397L106.426 25.4933C106.786 25.6958 106.964 26.1155 106.86 26.5152L93.4549 77.9184C93.3079 78.4821 92.6759 78.7642 92.1577 78.4974L63.7967 63.8957C63.4147 63.699 63.2224 63.262 63.3356 62.8477L77.6128 10.5927C77.7688 10.0217 78.4204 9.7495 78.9366 10.0397Z" fill="white"/>
<path opacity="0.3" d="M49.8843 26.4795L77.7354 42.9856C77.9046 43.086 78.0366 43.2384 78.1118 43.4201L93.4802 77.3794C93.8055 78.1659 92.9683 78.9281 92.2151 78.5313L63.8233 63.9347C63.6238 63.8297 63.4705 63.6543 63.3931 63.4427L48.5653 27.5739C48.2713 26.7707 49.1484 26.0429 49.8843 26.4795Z" fill="white"/>
<path opacity="0.6" d="M49.8992 26.4708L77.4031 42.7918C77.7572 43.0019 77.9259 43.4233 77.8146 43.8195L63.7462 93.9092C63.5906 94.4634 62.9655 94.7354 62.4535 94.4718L34.0828 79.8651C33.6965 79.6662 33.5049 79.2221 33.6252 78.8049L48.5604 27.0009C48.7253 26.4287 49.3869 26.1668 49.8992 26.4708Z" fill="white"/>
<path opacity="0.8" d="M15.4147 28.0833L43.2484 43.6674C43.4276 43.7681 43.5673 43.9265 43.6449 44.1168L63.7078 93.3107C64.0268 94.0928 63.1997 94.8492 62.4485 94.4624L33.7268 79.6818C33.528 79.5794 33.3739 79.4075 33.2939 79.1988L14.119 29.2013C13.814 28.4061 14.672 27.6658 15.4147 28.0833Z" fill="white"/>
</svg>
